<?xml version="1.0" encoding="UTF-8" standalone="no"?>
<svg
   xmlns:dc="http://purl.org/dc/elements/1.1/"
   xmlns:cc="http://creativecommons.org/ns#"
   xmlns:rdf="http://www.w3.org/1999/02/22-rdf-syntax-ns#"
   xmlns:svg="http://www.w3.org/2000/svg"
   xmlns="http://www.w3.org/2000/svg"
   xmlns:sodipodi="http://sodipodi.sourceforge.net/DTD/sodipodi-0.dtd"
   xmlns:inkscape="http://www.inkscape.org/namespaces/inkscape"
   version="1.1"
   id="Layer_1"
   x="0px"
   y="0px"
   viewBox="0 0 100 99.999998"
   xml:space="preserve"
   sodipodi:docname="bookd.svg"
   width="100"
   height="100"
   inkscape:version="1.0.2 (e86c870879, 2021-01-15)"
   inkscape:export-filename="/home/akshat/Documents/GitHub/wpdfs.github.io/images/bookd.png"
   inkscape:export-xdpi="30.719999"
   inkscape:export-ydpi="30.719999"><metadata
   id="metadata53"><rdf:RDF><cc:Work
       rdf:about=""><dc:format>image/svg+xml</dc:format><dc:type
         rdf:resource="http://purl.org/dc/dcmitype/StillImage" /><dc:title></dc:title></cc:Work></rdf:RDF></metadata><defs
   id="defs51" /><sodipodi:namedview
   pagecolor="#ffffff"
   bordercolor="#666666"
   borderopacity="1"
   objecttolerance="10"
   gridtolerance="10"
   guidetolerance="10"
   inkscape:pageopacity="0"
   inkscape:pageshadow="2"
   inkscape:window-width="1366"
   inkscape:window-height="708"
   id="namedview49"
   showgrid="false"
   inkscape:zoom="5.702306"
   inkscape:cx="43.663671"
   inkscape:cy="53.526029"
   inkscape:window-x="0"
   inkscape:window-y="0"
   inkscape:window-maximized="1"
   inkscape:current-layer="Layer_1"
   inkscape:document-rotation="0" />
<style
   type="text/css"
   id="style2">
	.st0{fill:none;stroke:#3989C9;stroke-width:3.0446;}
	.st1{fill:#009D4B;}
	.st2{fill:none;stroke:#6DC065;stroke-width:2;}
	.st3{fill:#CE242B;}
	.st4{fill:none;stroke:#EF3C39;stroke-width:2;}
</style>
<g
   id="g8"
   transform="matrix(1.5681528,0,0,1.6030074,-43.845593,-25.981875)">
	<path
   class="st0"
   d="m 61.9,77.2 m 0,-58.9 M 36.4,66.4 c 6.3,-4.5 16.7,-4.5 23,0 M 57.5,18 c -18,17.8 -18,41.6 0,59.4 M 59.6,18 c 0,0 -0.3,0 -0.3,0 -16.4,0.1 -29.6,13.4 -29.5,29.8 0.1,16.4 13.4,29.6 29.8,29.5 M 59.3,16.5 59,78.8 M 59.6,47.7 H 29.8 m 6.1,-17.9"
   id="path4"
   style="fill:#ffffff" />
	<path
   class="st0"
   d="m 58.6,30 c -6.3,4.5 -16.7,4.5 -23,0"
   id="path6" />
</g>
<g
   id="g24"
   transform="matrix(1.5681528,0,0,1.4739779,-43.845593,-19.501554)">
	<g
   id="g22">
		<g
   id="g14">
			<path
   class="st1"
   d="M 71.8,51.2 V 39.3 c 0,-0.5 0.5,-1 1,-1 h 5.6 c 0.5,0 1,0.5 1,1 v 11.9"
   id="path10" />
			<path
   class="st2"
   d="M 71.8,51.2 V 39.3 c 0,-0.5 0.5,-1 1,-1 h 5.6 c 0.5,0 1,0.5 1,1 v 11.9"
   id="path12" />
		</g>
		<g
   id="g20">
			<path
   class="st1"
   d="m 74.3,51.2 c 0.5,0 1.4,0 2,0 h 5.8 c 0.6,0 0.7,0.4 0.4,0.8 l -2.7,3.7 c -0.3,0.4 -0.9,1.2 -1.2,1.6 L 75.9,61 c -0.3,0.4 -0.9,0.4 -1.2,0 L 72,57.3 C 71.7,56.9 71.1,56.1 70.8,55.7 L 68.1,52 C 67.8,51.6 68,51.2 68.5,51.2 Z"
   id="path16" />
			<path
   class="st2"
   d="m 74.3,51.2 c 0.5,0 1.4,0 2,0 h 5.8 c 0.6,0 0.7,0.4 0.4,0.8 l -2.7,3.7 c -0.3,0.4 -0.9,1.2 -1.2,1.6 L 75.9,61 c -0.3,0.4 -0.9,0.4 -1.2,0 L 72,57.3 C 71.7,56.9 71.1,56.1 70.8,55.7 L 68.1,52 C 67.8,51.6 68,51.2 68.5,51.2 Z"
   id="path18" />
		</g>
	</g>
</g>
<g
   id="g46"
   transform="matrix(1.5681528,0,0,1.6030074,-43.845593,-25.981875)">
	<g
   id="g44">
		<g
   id="g42">
			<g
   id="g30">
				<g
   id="g28">
					<path
   class="st3"
   d="m 89.8,17.5 c 0.5,0 1,0.5 1,1 V 29 c 0,0.5 -0.3,0.7 -0.8,0.4 L 76.8,18.1 C 76.4,17.7 76.5,17.5 77,17.5 Z"
   id="path26" />
				</g>
			</g>
			<g
   id="g40">
				<g
   id="g34">
					<path
   class="st4"
   d="m 90.8,29 c 0,0.5 0,1.4 0,2 v 45.9 c 0,0.5 -0.5,1 -1,1 h -29 c -0.5,0 -1,-0.5 -1,-1 V 18.5 c 0,-0.5 0.5,-1 1,-1 H 75 c 0.6,0 1.4,0 2,0 h 12.8 c 0.5,0 1,0.5 1,1 z"
   id="path32" />
				</g>
				<g
   id="g38">
					<path
   class="st4"
   d="m 75.8,17.3 c 0,0 1,0.8 0.1,0.1 0.1,0.1 0.5,0.4 0.9,0.7 l 14,11.9"
   id="path36"
   sodipodi:nodetypes="cccc" />
				</g>
			</g>
		</g>
	</g>
</g>
<path
   style="fill:#ffffff;fill-rule:evenodd;stroke-width:0.179951"
   d="M 12.386756,74.749918 C 11.605823,73.511684 10.387658,71.252174 9.6797222,69.728784 7.3347779,64.682752 6.1568489,60.263825 5.4835427,53.987079 l -0.1039908,-0.96943 h 8.6641191 8.664119 l 0.119871,1.708045 c 0.341342,4.863871 1.493294,10.683139 3.057491,15.445418 l 0.847906,2.581497 -0.718599,0.11478 c -3.78585,0.604709 -7.449175,1.740339 -10.397126,3.22311 l -1.810698,0.910751 z"
   id="path55" /><path
   style="fill:#ffffff;fill-rule:evenodd;stroke-width:0.179951"
   d="M 45.42098,75.362273 C 42.41593,73.942957 36.42962,72.590912 33.150517,72.590912 H 32.052222 L 31.780163,71.905305 C 29.626353,66.477566 28.243206,60.454352 27.750298,54.356386 l -0.108212,-1.338737 h 9.392788 9.392788 l -0.02204,8.724874 c -0.01211,4.798681 -0.0713,9.905248 -0.131522,11.347924 l -0.109489,2.62305 z"
   id="path57" /><path
   style="fill:#ffffff;fill-rule:evenodd;stroke-width:0.179951"
   d="M 37.483912,93.733687 C 30.437982,91.679335 23.678435,87.689674 18.766434,82.686145 l -1.645429,-1.676089 0.828084,-0.443127 c 2.275912,-1.217896 6.811812,-2.525113 9.526809,-2.745564 l 1.385554,-0.112504 0.643504,1.34549 c 0.983998,2.057421 3.231271,5.955941 4.736348,8.216508 1.406842,2.113023 4.26587,5.962128 4.729421,6.367212 0.279911,0.244605 0.360124,0.566885 0.135338,0.543761 -0.07234,-0.0075 -0.802307,-0.209106 -1.622151,-0.448145 z"
   id="path59" /><path
   style="fill:#ffffff;fill-rule:evenodd;stroke-width:0.179951"
   d="m 44.579567,92.487318 c -1.846543,-2.060998 -4.680348,-5.753098 -6.304683,-8.214233 -1.195437,-1.811282 -3.772222,-6.205484 -3.772222,-6.432784 0,-0.365708 5.186373,0.750864 7.52702,1.620489 0.827428,0.307416 2.116009,0.882638 2.863513,1.278273 l 1.3591,0.719334 v 6.368483 c 0,3.502665 -0.03204,6.368482 -0.07121,6.368482 -0.03916,0 -0.759848,-0.76862 -1.601522,-1.708044 z"
   id="path61" /><path
   style="fill:#ffffff;fill-rule:evenodd;stroke-width:0.179951"
   d="M 5.4784837,46.785596 C 6.1314607,39.694084 8.2822651,32.850001 11.618024,27.248939 l 0.995439,-1.671438 1.693956,0.882885 c 2.85906,1.490133 7.430189,2.872942 10.642631,3.219493 0.951839,0.102684 1.147742,0.179067 1.081194,0.421566 -0.0447,0.162888 -0.406646,1.422409 -0.804321,2.798936 -1.283515,4.442816 -2.119002,9.079674 -2.402077,13.331255 l -0.119871,1.80037 H 14.034346 5.3637158 Z"
   id="path63" /><path
   style="fill:#ffffff;fill-rule:evenodd;stroke-width:0.179951"
   d="m 27.749686,46.600943 c 0.376133,-4.628831 1.373167,-9.682012 2.723414,-13.802844 0.399328,-1.218712 0.765288,-2.349105 0.813245,-2.511982 0.06953,-0.236155 0.448515,-0.318599 1.870965,-0.40701 4.110146,-0.255463 8.299488,-1.382092 12.465909,-3.352426 l 1.036919,-0.490368 -0.115944,5.966041 c -0.06377,3.281323 -0.116076,8.230353 -0.116237,10.997847 l -2.95e-4,5.031805 h -9.397131 -9.397132 z"
   id="path65" /><path
   style="fill:#ffffff;fill-rule:evenodd;stroke-width:0.179951"
   d="m 25.456136,24.658944 c -0.972823,-0.13937 -2.704553,-0.507458 -3.84829,-0.817973 -2.151876,-0.584217 -5.924837,-2.141343 -5.833688,-2.407602 0.14288,-0.41737 2.223437,-2.679954 3.757318,-4.086044 4.66885,-4.279877 9.519599,-7.289922 14.950782,-9.2774397 1.722205,-0.6302339 4.328172,-1.4002454 4.738879,-1.4002454 0.103492,0 -0.660145,1.1092594 -1.696969,2.4650209 -3.475775,4.5449582 -6.435764,9.3383452 -8.422909,13.6400082 -1.141949,2.472026 -0.794872,2.292612 -3.645123,1.884275 z"
   id="path67" /><path
   style="fill:#ffffff;fill-rule:evenodd;stroke-width:0.179951"
   d="m 34.155701,23.724748 c 1.573048,-2.944998 2.101723,-3.856331 3.573813,-6.160556 0.875918,-1.371052 2.348093,-3.48995 3.271499,-4.708662 1.565708,-2.066423 5.348171,-6.5551969 5.523732,-6.5551969 0.04306,0 0.07828,3.1001796 0.07828,6.8892879 v 6.889288 l -1.359099,0.844857 c -2.972457,1.847767 -6.929089,3.233054 -10.721616,3.753826 l -0.944869,0.129745 z"
   id="path69" /><path
   style="fill:#ffffff;fill-rule:evenodd;stroke-width:0.179951"
   d="m 51.513324,50.724584 c 0,-25.533879 0.0479,-46.556671 0.106446,-46.7173163 0.09557,-0.2622398 1.28361,-0.2920826 11.627828,-0.2920826 h 11.521381 l 1.217853,1.0513855 c 0.669818,0.5782621 5.656846,4.9070836 11.082283,9.6196034 l 9.86443,8.568218 V 60.052104 97.149817 H 74.223435 51.513324 Z m 24.218644,22.740087 c 0.327733,-0.230347 1.621779,-1.840753 2.875658,-3.578677 7.368521,-10.213055 8.650209,-12.054785 8.761968,-12.590563 0.156007,-0.747905 -0.144561,-1.701917 -0.713792,-2.265604 -0.404987,-0.401044 -0.626194,-0.448476 -2.354755,-0.504911 l -1.907777,-0.06229 -0.05146,-9.184127 -0.05146,-9.18413 -0.482458,-0.767385 c -0.92044,-1.464029 -1.150166,-1.513291 -7.056997,-1.513291 -5.637374,0 -5.898593,0.04 -6.785694,1.039015 -0.259107,0.291797 -0.55504,0.764456 -0.657629,1.050357 -0.12252,0.341448 -0.186524,3.620422 -0.186524,9.555815 v 9.035996 h -2.200804 c -2.457975,0 -3.045476,0.185187 -3.495676,1.101877 -0.445065,0.906233 -0.339224,1.885579 0.314289,2.908118 0.587231,0.918826 7.778718,10.965335 9.63352,13.458027 0.553866,0.744347 1.224647,1.477657 1.490625,1.629579 0.75573,0.431659 2.162115,0.369008 2.868969,-0.127806 z"
   id="path71" /><path
   style="fill:#ffffff;fill-rule:evenodd;stroke-width:0.175368"
   d="M 51.642899,50.544779 V 3.8093006 h 11.626704 11.626705 l 5.711757,4.9541361 c 3.141468,2.7247753 8.084847,7.0059373 10.985288,9.5136953 l 5.273528,4.559559 0.01043,37.221783 0.01044,37.221784 H 74.265326 51.642899 Z m 23.814867,21.585183 c 0.663464,-0.347582 1.248999,-1.008239 3.821221,-4.311469 1.239269,-1.591462 3.531398,-4.52937 5.09362,-6.528682 1.601435,-2.049497 2.891167,-3.866241 2.956783,-4.164982 0.172798,-0.786748 -0.03936,-1.470894 -0.632528,-2.039687 -0.506932,-0.486099 -0.607358,-0.509343 -2.446626,-0.566265 l -1.917998,-0.05936 v -8.25908 c 0,-7.948232 -0.01343,-8.286828 -0.356903,-8.996343 -0.202809,-0.418948 -0.669377,-0.953929 -1.080638,-1.239098 l -0.723737,-0.501838 -5.194594,-0.05323 -5.194593,-0.05323 -0.945847,0.494116 c -0.712249,0.372084 -1.046465,0.684391 -1.35326,1.264548 l -0.407414,0.770432 v 8.30238 8.302381 h -2.12175 c -2.452407,0 -3.127083,0.215059 -3.564147,1.136102 -0.3441,0.725138 -0.351611,1.366782 -0.02343,2.00142 0.139247,0.269275 1.542653,2.139598 3.11868,4.156273 1.576027,2.016676 3.981768,5.094309 5.346092,6.839188 1.64206,2.100082 2.677474,3.269524 3.063029,3.459518 0.720117,0.354858 1.93384,0.377063 2.564036,0.04691 z"
   id="path38" /><path
   style="fill:#ffffff;fill-rule:evenodd;stroke-width:0.175368"
   d="M 51.642899,50.544779 V 3.8093006 h 11.638994 11.638994 l 10.975456,9.5136954 10.975458,9.513695 0.008,37.221783 0.008,37.221784 H 74.265326 51.642899 Z m 24.164166,21.363457 c 0.589932,-0.437265 1.319614,-1.336498 6.934933,-8.54633 3.122453,-4.009097 4.529052,-5.951469 4.605693,-6.359999 0.131547,-0.701202 -0.144775,-1.445678 -0.746692,-2.011772 -0.394194,-0.370732 -0.628764,-0.417815 -2.347011,-0.471088 l -1.909045,-0.05919 -0.05019,-8.477322 c -0.05646,-9.536226 0.05278,-8.777043 -1.436561,-9.98312 l -0.662203,-0.536254 -5.0259,-0.05621 c -5.517454,-0.0617 -5.959541,-0.0051 -6.983974,0.894375 -1.128145,0.990524 -1.11086,0.835834 -1.11086,9.94131 v 8.247912 h -2.166161 c -1.964442,0 -2.221414,0.03723 -2.759486,0.399842 -1.043173,0.702993 -1.328378,1.839465 -0.713836,2.84446 0.39526,0.646393 9.550242,12.382476 10.707551,13.726378 0.188714,0.21914 0.565807,0.519122 0.837983,0.666625 0.67112,0.363708 2.198981,0.244961 2.825762,-0.21962 z"
   id="path40"
   inkscape:export-xdpi="30.719999"
   inkscape:export-ydpi="30.719999" /></svg>
