<?xml version="1.0" encoding="UTF-8" standalone="no"?>
<svg
   xmlns:dc="http://purl.org/dc/elements/1.1/"
   xmlns:cc="http://creativecommons.org/ns#"
   xmlns:rdf="http://www.w3.org/1999/02/22-rdf-syntax-ns#"
   xmlns:svg="http://www.w3.org/2000/svg"
   xmlns="http://www.w3.org/2000/svg"
   xmlns:sodipodi="http://sodipodi.sourceforge.net/DTD/sodipodi-0.dtd"
   xmlns:inkscape="http://www.inkscape.org/namespaces/inkscape"
   version="1.1"
   id="Layer_1"
   x="0px"
   y="0px"
   viewBox="0 0 100 99.999998"
   xml:space="preserve"
   sodipodi:docname="bookd_transparent.svg"
   width="100"
   height="100"
   inkscape:version="1.0.2 (e86c870879, 2021-01-15)"><metadata
   id="metadata53"><rdf:RDF><cc:Work
       rdf:about=""><dc:format>image/svg+xml</dc:format><dc:type
         rdf:resource="http://purl.org/dc/dcmitype/StillImage" /><dc:title></dc:title></cc:Work></rdf:RDF></metadata><defs
   id="defs51" /><sodipodi:namedview
   pagecolor="#ffffff"
   bordercolor="#666666"
   borderopacity="1"
   objecttolerance="10"
   gridtolerance="10"
   guidetolerance="10"
   inkscape:pageopacity="0"
   inkscape:pageshadow="2"
   inkscape:window-width="1366"
   inkscape:window-height="708"
   id="namedview49"
   showgrid="false"
   inkscape:zoom="5.702306"
   inkscape:cx="63"
   inkscape:cy="60.831052"
   inkscape:window-x="0"
   inkscape:window-y="0"
   inkscape:window-maximized="1"
   inkscape:current-layer="Layer_1" />
<style
   type="text/css"
   id="style2">
	.st0{fill:none;stroke:#3989C9;stroke-width:3.0446;}
	.st1{fill:#009D4B;}
	.st2{fill:none;stroke:#6DC065;stroke-width:2;}
	.st3{fill:#CE242B;}
	.st4{fill:none;stroke:#EF3C39;stroke-width:2;}
</style>
<g
   id="g8"
   transform="matrix(1.5716073,0,0,1.5716073,-44.276009,-23.813907)">
	<path
   class="st0"
   d="m 61.9,77.2 m 0,-58.9 M 36.4,66.4 c 6.3,-4.5 16.7,-4.5 23,0 M 57.5,18 c -18,17.8 -18,41.6 0,59.4 M 59.6,18 c 0,0 -0.3,0 -0.3,0 -16.4,0.1 -29.6,13.4 -29.5,29.8 0.1,16.4 13.4,29.6 29.8,29.5 M 59.3,16.5 59,78.8 M 59.6,47.7 H 29.8 m 6.1,-17.9"
   id="path4" />
	<path
   class="st0"
   d="m 58.6,30 c -6.3,4.5 -16.7,4.5 -23,0"
   id="path6" />
</g>
<g
   id="g24"
   transform="matrix(2.0287972,0,0,1.7255069,-78.5654,-32.798991)"
   style="stroke-width:0;stroke-miterlimit:4;stroke-dasharray:none">
	<g
   id="g22"
   style="stroke-width:0;stroke-miterlimit:4;stroke-dasharray:none">
		<g
   id="g14"
   style="stroke-width:0;stroke-miterlimit:4;stroke-dasharray:none">
			<path
   class="st1"
   d="M 71.8,51.2 V 39.3 c 0,-0.5 0.5,-1 1,-1 h 5.6 c 0.5,0 1,0.5 1,1 v 11.9"
   id="path10"
   style="stroke-width:0;stroke-miterlimit:4;stroke-dasharray:none" />
			<path
   class="st2"
   d="M 71.8,51.2 V 39.3 c 0,-0.5 0.5,-1 1,-1 h 5.6 c 0.5,0 1,0.5 1,1 v 11.9"
   id="path12"
   style="stroke-width:0;stroke-miterlimit:4;stroke-dasharray:none" />
		</g>
		<g
   id="g20"
   style="stroke-width:0;stroke-miterlimit:4;stroke-dasharray:none">
			<path
   class="st1"
   d="m 74.3,51.2 c 0.5,0 1.4,0 2,0 h 5.8 c 0.6,0 0.7,0.4 0.4,0.8 l -2.7,3.7 c -0.3,0.4 -0.9,1.2 -1.2,1.6 L 75.9,61 c -0.3,0.4 -0.9,0.4 -1.2,0 L 72,57.3 C 71.7,56.9 71.1,56.1 70.8,55.7 L 68.1,52 C 67.8,51.6 68,51.2 68.5,51.2 Z"
   id="path16"
   style="stroke-width:0;stroke-miterlimit:4;stroke-dasharray:none" />
			<path
   class="st2"
   d="m 74.3,51.2 c 0.5,0 1.4,0 2,0 h 5.8 c 0.6,0 0.7,0.4 0.4,0.8 l -2.7,3.7 c -0.3,0.4 -0.9,1.2 -1.2,1.6 L 75.9,61 c -0.3,0.4 -0.9,0.4 -1.2,0 L 72,57.3 C 71.7,56.9 71.1,56.1 70.8,55.7 L 68.1,52 C 67.8,51.6 68,51.2 68.5,51.2 Z"
   id="path18"
   style="stroke-width:0;stroke-miterlimit:4;stroke-dasharray:none" />
		</g>
	</g>
</g>
<g
   id="g46"
   transform="matrix(1.5716073,0,0,1.5716073,-44.276009,-23.813907)">
	<g
   id="g44">
		<g
   id="g42">
			<g
   id="g30">
				<g
   id="g28">
					<path
   class="st3"
   d="m 89.8,17.5 c 0.5,0 1,0.5 1,1 V 29 c 0,0.5 -0.3,0.7 -0.8,0.4 L 76.8,18.1 C 76.4,17.7 76.5,17.5 77,17.5 Z"
   id="path26" />
				</g>
			</g>
			<g
   id="g40">
				<g
   id="g34">
					<path
   class="st4"
   d="m 90.8,29 c 0,0.5 0,1.4 0,2 v 45.9 c 0,0.5 -0.5,1 -1,1 h -29 c -0.5,0 -1,-0.5 -1,-1 V 18.5 c 0,-0.5 0.5,-1 1,-1 H 75 c 0.6,0 1.4,0 2,0 h 12.8 c 0.5,0 1,0.5 1,1 z"
   id="path32" />
				</g>
				<g
   id="g38">
					<path
   class="st4"
   d="m 75.8,17.3 c 0,0 0.1,0 0.1,0.1 0.1,0.1 0.5,0.4 0.9,0.7 l 14,11.9"
   id="path36" />
				</g>
			</g>
		</g>
	</g>
</g>
</svg>
